# xmcd CD database file
#
# Track frame offsets:
#	187
#	3049
#	19119
#	40099
#	57072
#	82834
#	103329
#	124882
#	147352
#	172422
#
# Disc length: 2561 seconds
#
# Revision: 2
# Processed by: cddbd v1.5.1PL0 Copyright (c) Steve Scherf et al.
# Submitted via: CDex 1.51
#
DISCID=7d09ff0a
DTITLE=Great White - Sail Away
DYEAR=1994
DGENRE=Hard Rock
TTITLE0=A Short Overture
TTITLE1=Mother's Eyes
TTITLE2=Cryin'
TTITLE3=Momma Don't Stop
TTITLE4=Alone
TTITLE5=All Right
TTITLE6=Sail Away
TTITLE7=Gone With The Wind
TTITLE8=Livin' In The U.S.A.
TTITLE9=If I Ever Saw A Good Thing
EXTD=YEAR: 1994
EXTT0=
EXTT1=
EXTT2=
EXTT3=
EXTT4=
EXTT5=
EXTT6=
EXTT7=
EXTT8=
EXTT9=
PLAYORDER=
